<svg width="18" height="20" viewBox="0 0 18 20" fill="none" xmlns="http://www.w3.org/2000/svg">
<path d="M17.8725 18.708L11.4724 8.46654L17.7876 1.39287C17.9304 1.22894 18.004 1.01429 17.9925 0.795459C17.9809 0.576631 17.8851 0.371261 17.7258 0.223876C17.5666 0.0764899 17.3567 -0.00103252 17.1416 0.00811552C16.9266 0.0172636 16.7238 0.112345 16.5771 0.272745L10.5615 7.01017L6.42195 0.386215C6.34813 0.267909 6.24618 0.170487 6.12555 0.102975C6.00492 0.0354622 5.8695 4.34416e-05 5.73185 9.8516e-08H0.824489C0.677842 -7.25204e-05 0.533873 0.0400033 0.407657 0.116031C0.281441 0.192058 0.177622 0.301241 0.107071 0.432146C0.0365192 0.563051 0.00183061 0.710863 0.00663709 0.860105C0.0114436 1.00935 0.0555684 1.15453 0.134391 1.28044L6.53441 11.5209L0.219248 18.5997C0.145501 18.6804 0.088211 18.7752 0.050698 18.8785C0.013185 18.9819 -0.00380512 19.0918 0.000712959 19.202C0.00523104 19.3121 0.0311675 19.4202 0.0770184 19.52C0.122869 19.6198 0.187723 19.7094 0.267821 19.7835C0.347918 19.8576 0.441667 19.9148 0.543634 19.9518C0.6456 19.9887 0.753755 20.0047 0.861831 19.9988C0.969907 19.9929 1.07575 19.9652 1.17324 19.9173C1.27072 19.8694 1.3579 19.8023 1.42973 19.7199L7.44534 12.9824L11.5849 19.6064C11.6593 19.7237 11.7615 19.8201 11.8821 19.8867C12.0027 19.9533 12.1378 19.9879 12.275 19.9874H17.1824C17.3288 19.9874 17.4726 19.9473 17.5987 19.8713C17.7248 19.7953 17.8285 19.6862 17.899 19.5555C17.9695 19.4248 18.0043 19.2771 17.9996 19.1281C17.9949 18.979 17.951 18.8339 17.8725 18.708ZM12.7238 18.3218L2.31408 1.66562H5.27894L15.6928 18.3218H12.7238Z" fill="white"/>
</svg>
