<svg width="122" height="49" viewBox="0 0 122 49" fill="none" xmlns="http://www.w3.org/2000/svg">
<circle cx="23" cy="24.5" r="22.5" fill="#26242A" stroke="#31AD36"/>
<path d="M32.5 12.5C34.433 12.5 36 14.067 36 16C36 17.933 34.433 19.5 32.5 19.5C31.812 19.5 31.1708 19.3012 30.63 18.9582C29.945 18.5236 29.145 18.1673 28.3561 18.3563L21.3579 20.0328C21.1443 20.0839 21 20.2804 21 20.5V20.5C21 21.1982 20.8971 21.8722 20.7063 22.5082C20.4495 23.3636 20.5556 24.331 21.1871 24.9626L25.7003 29.4765C26.4307 30.207 27.5911 30.2174 28.5575 29.8527C29.1615 29.6247 29.8162 29.5 30.5 29.5C33.5376 29.5 36 31.9624 36 35C36 38.0376 33.5376 40.5 30.5 40.5C27.4624 40.5 25 38.0376 25 35C25 34.6728 25.0287 34.3524 25.0837 34.0411C25.2288 33.2188 25.1036 32.3273 24.5132 31.737L19.887 27.1115C19.1459 26.3704 17.9668 26.3598 17.0222 26.8137C16.1075 27.2533 15.0828 27.5 14 27.5C10.134 27.5 7 24.366 7 20.5C7 16.634 10.134 13.5 14 13.5C16.2839 13.5 18.3118 14.5939 19.5894 16.2863C20.1764 17.0639 21.1271 17.5748 22.0744 17.3471L27.6213 16.0138C28.4548 15.8135 29.0188 15.068 29.4315 14.3167C30.0263 13.2339 31.1772 12.5 32.5 12.5Z" fill="#31AD36"/>
<path d="M72.4073 20.4766C71.0593 21.4635 69.3904 21.9569 67.4006 21.9569C65.6675 21.9569 64.1711 21.5798 62.9115 20.8256C61.6598 20.0714 60.693 19.0163 60.011 17.6603C59.337 16.3044 59 14.7277 59 12.9305C59 11.1332 59.337 9.5566 60.011 8.20063C60.693 6.84466 61.6598 5.78957 62.9115 5.03536C64.1711 4.28116 65.6675 3.90405 67.4006 3.90405C69.3904 3.90405 71.0593 4.37343 72.4073 5.31218C73.7632 6.2429 74.718 7.75533 75.2716 9.84946H71.974C71.6129 8.91071 71.0593 8.20063 70.3131 7.71922C69.575 7.22979 68.6041 6.98507 67.4006 6.98507C66.3014 6.98507 65.3827 7.22979 64.6445 7.71922C63.9144 8.20866 63.3648 8.89868 62.9957 9.78928C62.6266 10.6799 62.4421 11.727 62.4421 12.9305C62.4421 14.134 62.6266 15.1811 62.9957 16.0717C63.3648 16.9623 63.9144 17.6523 64.6445 18.1417C65.3827 18.6312 66.3014 18.8759 67.4006 18.8759C68.6041 18.8759 69.575 18.6312 70.3131 18.1417C71.0593 17.6523 71.6129 16.9422 71.974 16.0115H75.2716C74.718 18.0013 73.7632 19.4897 72.4073 20.4766Z" fill="#DEDEDE"/>
<path d="M90.4816 14.3025V21.5958H87.1598V15.4579C87.1598 15.161 87.1438 14.7839 87.1117 14.3266C87.0796 13.8612 86.9793 13.3958 86.8108 12.9305C86.6423 12.4651 86.3655 12.076 85.9804 11.7631C85.6033 11.4501 85.0657 11.2937 84.3677 11.2937C84.0868 11.2937 83.786 11.3378 83.465 11.4261C83.1441 11.5143 82.8432 11.6868 82.5624 11.9436C82.2816 12.1923 82.0489 12.5614 81.8643 13.0508C81.6878 13.5403 81.5996 14.1902 81.5996 15.0005L80.6127 14.1099C80.6127 13.0829 80.7771 12.1 81.1061 11.1613C81.4351 10.2145 81.9125 9.4884 82.5383 8.98292C83.1722 8.46942 84.127 8.21267 85.4027 8.21267C86.4217 8.21267 87.2521 8.38517 87.894 8.73018C88.5359 9.07519 89.0333 9.51247 89.3864 10.042C89.7474 10.5716 90.0042 11.1252 90.1566 11.7029C90.3091 12.2726 90.4013 12.7941 90.4334 13.2675C90.4655 13.7409 90.4816 14.0859 90.4816 14.3025ZM81.5996 11.8353V21.5958H78.2778V4.26511H81.1904V9.22363C81.1904 9.64085 81.1302 10.0821 81.0098 10.5475C80.8895 11.0048 80.733 11.4341 80.5405 11.8353H81.5996Z" fill="#DEDEDE"/>
<path d="M103.604 21.3135C102.617 21.8912 101.474 22.18 100.174 22.18C98.8662 22.18 97.7189 21.8871 96.732 21.3014C95.7451 20.7157 94.9748 19.9094 94.4212 18.8823C93.8756 17.8473 93.6028 16.6598 93.6028 15.3199C93.6028 13.9639 93.8836 12.7725 94.4453 11.7454C95.0069 10.7104 95.7812 9.90406 96.7681 9.32636C97.755 8.74867 98.8903 8.45983 100.174 8.45983C101.482 8.45983 102.629 8.75269 103.616 9.3384C104.611 9.92412 105.385 10.7345 105.939 11.7695C106.493 12.7965 106.769 13.98 106.769 15.3199C106.769 16.6679 106.489 17.8593 105.927 18.8944C105.373 19.9214 104.599 20.7277 103.604 21.3135ZM97.8513 18.1001C98.3808 18.7821 99.1551 19.123 100.174 19.123C101.225 19.123 102.007 18.77 102.521 18.0639C103.042 17.3499 103.303 16.4352 103.303 15.3199C103.303 14.1645 103.038 13.2418 102.509 12.5518C101.987 11.8618 101.209 11.5168 100.174 11.5168C99.46 11.5168 98.8743 11.6772 98.4169 11.9982C97.9596 12.3191 97.6186 12.7644 97.3939 13.3341C97.1773 13.9038 97.069 14.5657 97.069 15.3199C97.069 16.4833 97.3297 17.41 97.8513 18.1001Z" fill="#DEDEDE"/>
<path d="M119.121 21.2774C118.222 21.8791 117.175 22.18 115.98 22.18C115.041 22.18 114.21 21.8791 113.488 21.2774C112.774 20.6756 112.217 19.8572 111.815 18.8222C111.422 17.7871 111.226 16.6197 111.226 15.3199C111.226 14.0201 111.422 12.8527 111.815 11.8177C112.217 10.7826 112.762 9.96423 113.452 9.36247C114.15 8.76071 114.937 8.45983 115.811 8.45983C117.055 8.45983 118.138 8.7567 119.061 9.35044C119.983 9.94417 120.697 10.7586 121.203 11.7936C121.716 12.8206 121.973 13.996 121.973 15.3199C121.973 16.6197 121.72 17.7871 121.215 18.8222C120.717 19.8572 120.019 20.6756 119.121 21.2774ZM114.018 18.774C114.427 19.103 114.973 19.2675 115.655 19.2675C116.313 19.2675 116.85 19.091 117.267 18.7379C117.693 18.3849 118.006 17.9115 118.206 17.3178C118.407 16.716 118.507 16.0501 118.507 15.3199C118.507 14.5978 118.403 13.9399 118.194 13.3461C117.985 12.7444 117.661 12.267 117.219 11.9139C116.778 11.5529 116.216 11.3724 115.534 11.3724C114.9 11.3724 114.387 11.5368 113.994 11.8658C113.601 12.1948 113.312 12.6561 113.127 13.2499C112.951 13.8436 112.862 14.5336 112.862 15.3199C112.862 16.1062 112.951 16.7962 113.127 17.39C113.312 17.9837 113.609 18.4451 114.018 18.774ZM112.646 21.2292C112.79 21.5983 112.862 22.0235 112.862 22.5049V27.5959H109.565V8.82089H112.453V9.18194C112.453 9.47881 112.369 9.83185 112.201 10.241C112.032 10.6502 111.852 10.9953 111.659 11.2761H112.862V20.1942H112.092C112.317 20.5151 112.501 20.8601 112.646 21.2292Z" fill="#DEDEDE"/>
<path d="M72.4073 43.4766C71.0593 44.4635 69.3904 44.9569 67.4006 44.9569C65.6675 44.9569 64.1711 44.5798 62.9115 43.8256C61.6598 43.0714 60.693 42.0163 60.011 40.6603C59.337 39.3044 59 37.7277 59 35.9305C59 34.1332 59.337 32.5566 60.011 31.2006C60.693 29.8447 61.6598 28.7896 62.9115 28.0354C64.1711 27.2812 65.6675 26.9041 67.4006 26.9041C69.3904 26.9041 71.0593 27.3734 72.4073 28.3122C73.7632 29.2429 74.718 30.7553 75.2716 32.8495H71.974C71.6129 31.9107 71.0593 31.2006 70.3131 30.7192C69.575 30.2298 68.6041 29.9851 67.4006 29.9851C66.3014 29.9851 65.3827 30.2298 64.6445 30.7192C63.9144 31.2087 63.3648 31.8987 62.9957 32.7893C62.6266 33.6799 62.4421 34.727 62.4421 35.9305C62.4421 37.134 62.6266 38.1811 62.9957 39.0717C63.3648 39.9623 63.9144 40.6523 64.6445 41.1417C65.3827 41.6312 66.3014 41.8759 67.4006 41.8759C68.6041 41.8759 69.575 41.6312 70.3131 41.1417C71.0593 40.6523 71.6129 39.9422 71.974 39.0115H75.2716C74.718 41.0013 73.7632 42.4897 72.4073 43.4766Z" fill="#DEDEDE"/>
<path d="M87.7791 44.2293C86.7922 44.807 85.6489 45.0959 84.3491 45.0959C83.0412 45.0959 81.8939 44.803 80.907 44.2173C79.9201 43.6316 79.1498 42.8252 78.5962 41.7982C78.0506 40.7632 77.7778 39.5757 77.7778 38.2358C77.7778 36.8798 78.0587 35.6883 78.6203 34.6613C79.1819 33.6263 79.9562 32.8199 80.9431 32.2422C81.93 31.6645 83.0653 31.3757 84.3491 31.3757C85.6569 31.3757 86.8043 31.6685 87.7911 32.2543C88.7861 32.84 89.5603 33.6503 90.1139 34.6854C90.6676 35.7124 90.9444 36.8958 90.9444 38.2358C90.9444 39.5837 90.6636 40.7752 90.1019 41.8102C89.5483 42.8372 88.774 43.6436 87.7791 44.2293ZM82.0263 41.0159C82.5558 41.6979 83.3301 42.0389 84.3491 42.0389C85.4001 42.0389 86.1824 41.6859 86.6959 40.9798C87.2175 40.2657 87.4782 39.351 87.4782 38.2358C87.4782 37.0804 87.2135 36.1577 86.6839 35.4677C86.1624 34.7776 85.3841 34.4326 84.3491 34.4326C83.635 34.4326 83.0493 34.5931 82.5919 34.914C82.1346 35.235 81.7936 35.6803 81.5689 36.25C81.3523 36.8196 81.244 37.4816 81.244 38.2358C81.244 39.3992 81.5047 40.3259 82.0263 41.0159Z" fill="#DEDEDE"/>
<path d="M97.218 26.9041V29.7925H93.9444V26.9041H97.218ZM97.218 31.5978V44.5959H93.9444V31.5978H97.218Z" fill="#DEDEDE"/>
<path d="M113.036 37.3025V44.5958H109.714V38.4579C109.714 38.161 109.698 37.7839 109.666 37.3266C109.634 36.8612 109.534 36.3958 109.365 35.9305C109.197 35.4651 108.92 35.076 108.535 34.7631C108.158 34.4501 107.62 34.2937 106.922 34.2937C106.641 34.2937 106.341 34.3378 106.02 34.4261C105.699 34.5143 105.398 34.6868 105.117 34.9436C104.836 35.1923 104.603 35.5614 104.419 36.0508C104.242 36.5403 104.154 37.1902 104.154 38.0005L102.794 37.1099C102.794 36.0829 102.931 35.1201 103.203 34.2215C103.484 33.3228 104.026 32.5967 104.828 32.0431C105.638 31.4895 106.682 31.2127 107.957 31.2127C108.976 31.2127 109.807 31.3852 110.449 31.7302C111.09 32.0752 111.588 32.5125 111.941 33.042C112.302 33.5716 112.559 34.1252 112.711 34.7029C112.864 35.2726 112.956 35.7941 112.988 36.2675C113.02 36.7408 113.036 37.0859 113.036 37.3025ZM104.13 34.053V44.5958H100.832V31.5978H103.721V31.9588C103.721 32.2557 103.637 32.6088 103.468 33.0179C103.3 33.4271 103.119 33.7722 102.927 34.053H104.13Z" fill="#DEDEDE"/>
</svg>
