<svg width="210" height="46" viewBox="0 0 210 46" fill="none" xmlns="http://www.w3.org/2000/svg">
<rect x="0.5" y="0.5" width="209" height="45" rx="11.5" fill="#555555" fill-opacity="0.3"/>
<rect x="0.5" y="0.5" width="209" height="45" rx="11.5" stroke="#31AD36"/>
<path d="M57.296 24.71C57.24 25.214 57.114 25.6853 56.918 26.124C56.722 26.5533 56.456 26.9267 56.12 27.244C55.784 27.5613 55.3733 27.8087 54.888 27.986C54.412 28.1633 53.8567 28.252 53.222 28.252C52.5313 28.252 51.9107 28.1353 51.36 27.902C50.8093 27.6687 50.3427 27.328 49.96 26.88C49.5773 26.432 49.2787 25.886 49.064 25.242C48.8587 24.5887 48.756 23.8467 48.756 23.016C48.756 22.176 48.868 21.4293 49.092 20.776C49.316 20.1227 49.6287 19.572 50.03 19.124C50.4313 18.676 50.9027 18.3353 51.444 18.102C51.9947 17.8687 52.5873 17.752 53.222 17.752C53.838 17.752 54.37 17.8313 54.818 17.99C55.266 18.1487 55.644 18.3727 55.952 18.662C56.2693 18.9513 56.5213 19.2967 56.708 19.698C56.904 20.0993 57.0533 20.5427 57.156 21.028L55.896 21.238C55.812 20.874 55.7 20.5473 55.56 20.258C55.4293 19.9593 55.2567 19.7073 55.042 19.502C54.8367 19.2967 54.5847 19.1427 54.286 19.04C53.9967 18.928 53.642 18.872 53.222 18.872C52.7273 18.872 52.284 18.9747 51.892 19.18C51.5093 19.376 51.1827 19.656 50.912 20.02C50.6507 20.3747 50.45 20.8087 50.31 21.322C50.17 21.826 50.1 22.386 50.1 23.002C50.1 23.618 50.17 24.1827 50.31 24.696C50.45 25.2 50.6507 25.634 50.912 25.998C51.1827 26.362 51.5093 26.642 51.892 26.838C52.284 27.034 52.732 27.132 53.236 27.132C53.6933 27.132 54.0807 27.076 54.398 26.964C54.7247 26.8427 54.9907 26.6747 55.196 26.46C55.4107 26.2453 55.5787 25.9887 55.7 25.69C55.8213 25.3913 55.91 25.0647 55.966 24.71H57.296ZM59.1855 18.004H60.4035V28H59.1855V18.004ZM67.09 27.006C66.8287 27.3233 66.4973 27.5987 66.096 27.832C65.6947 28.056 65.1953 28.168 64.598 28.168C64.234 28.168 63.898 28.1213 63.59 28.028C63.2913 27.944 63.03 27.8133 62.806 27.636C62.5913 27.4493 62.4233 27.2207 62.302 26.95C62.1807 26.6793 62.12 26.362 62.12 25.998C62.12 25.5033 62.2227 25.102 62.428 24.794C62.6427 24.486 62.9227 24.2433 63.268 24.066C63.6227 23.8887 64.0193 23.7627 64.458 23.688C64.8967 23.6133 65.3493 23.5667 65.816 23.548L67.062 23.506V23.226C67.062 22.61 66.9313 22.1667 66.67 21.896C66.4087 21.6253 65.984 21.49 65.396 21.49C64.8173 21.49 64.3927 21.588 64.122 21.784C63.8513 21.9707 63.674 22.232 63.59 22.568L62.484 22.442C62.6147 21.7793 62.9273 21.2987 63.422 21C63.9167 20.692 64.5887 20.538 65.438 20.538C65.9607 20.538 66.3993 20.6033 66.754 20.734C67.118 20.8553 67.412 21.0327 67.636 21.266C67.86 21.4993 68.0187 21.7887 68.112 22.134C68.2147 22.4793 68.266 22.8667 68.266 23.296V28H67.09V27.006ZM67.062 24.374L65.9 24.416C65.4053 24.4347 64.9947 24.4813 64.668 24.556C64.3413 24.6307 64.08 24.7333 63.884 24.864C63.6973 24.9853 63.562 25.1393 63.478 25.326C63.4033 25.5127 63.366 25.7273 63.366 25.97C63.366 26.334 63.4733 26.628 63.688 26.852C63.912 27.0667 64.276 27.174 64.78 27.174C65.4987 27.174 66.0587 26.9967 66.46 26.642C66.8613 26.2873 67.062 25.802 67.062 25.186V24.374ZM70.4232 20.762H71.6412V28H70.4232V20.762ZM70.3812 18.004H71.6832V19.418H70.3812V18.004ZM73.8197 20.762H75.0237V21.868C75.3504 21.42 75.7097 21.0887 76.1017 20.874C76.4937 20.65 76.8951 20.538 77.3057 20.538C77.8471 20.538 78.2811 20.6547 78.6077 20.888C78.9437 21.1213 79.1911 21.4573 79.3497 21.896C79.6764 21.448 80.0497 21.112 80.4697 20.888C80.8897 20.6547 81.3377 20.538 81.8137 20.538C82.5231 20.538 83.0691 20.734 83.4517 21.126C83.8437 21.5087 84.0397 22.1293 84.0397 22.988V28H82.8217V23.268C82.8217 22.9413 82.7937 22.6707 82.7377 22.456C82.6817 22.232 82.5977 22.0593 82.4857 21.938C82.3831 21.8073 82.2524 21.7187 82.0937 21.672C81.9351 21.616 81.7531 21.588 81.5477 21.588C81.3331 21.588 81.1091 21.6253 80.8757 21.7C80.6424 21.7747 80.4137 21.9053 80.1897 22.092C80.0031 22.2507 79.8491 22.442 79.7277 22.666C79.6064 22.89 79.5457 23.1467 79.5457 23.436V28H78.3277V23.282C78.3277 22.6473 78.2157 22.2087 77.9917 21.966C77.7771 21.714 77.4644 21.588 77.0537 21.588C76.5777 21.588 76.1297 21.784 75.7097 22.176C75.5511 22.3253 75.3971 22.5167 75.2477 22.75C75.1077 22.9833 75.0377 23.296 75.0377 23.688V28H73.8197V20.762ZM93.8725 17.8182V28H91.7198V19.8615H91.6601L89.3284 21.3232V19.4141L91.849 17.8182H93.8725ZM100.565 28.2237C99.7095 28.2204 98.9737 28.0099 98.3572 27.5923C97.744 27.1747 97.2717 26.5698 96.9403 25.7777C96.6122 24.9856 96.4498 24.0327 96.4531 22.919C96.4531 21.8087 96.6171 20.8625 96.9453 20.0803C97.2767 19.2981 97.749 18.7031 98.3622 18.2955C98.9786 17.8845 99.7128 17.679 100.565 17.679C101.416 17.679 102.149 17.8845 102.762 18.2955C103.379 18.7064 103.852 19.303 104.184 20.0852C104.515 20.8641 104.679 21.8087 104.676 22.919C104.676 24.036 104.51 24.9905 104.179 25.7827C103.851 26.5748 103.38 27.1797 102.767 27.5973C102.154 28.0149 101.42 28.2237 100.565 28.2237ZM100.565 26.4389C101.148 26.4389 101.614 26.1456 101.962 25.5589C102.31 24.9723 102.482 24.0923 102.479 22.919C102.479 22.1468 102.399 21.5038 102.24 20.9901C102.084 20.4763 101.862 20.0902 101.574 19.8317C101.289 19.5732 100.952 19.4439 100.565 19.4439C99.9846 19.4439 99.5205 19.7339 99.1725 20.3139C98.8245 20.8939 98.6489 21.7623 98.6455 22.919C98.6455 23.7012 98.7234 24.3542 98.8792 24.8778C99.0383 25.3982 99.262 25.7893 99.5504 26.0511C99.8387 26.3097 100.177 26.4389 100.565 26.4389ZM110.483 28.2237C109.628 28.2204 108.892 28.0099 108.276 27.5923C107.663 27.1747 107.19 26.5698 106.859 25.7777C106.531 24.9856 106.368 24.0327 106.372 22.919C106.372 21.8087 106.536 20.8625 106.864 20.0803C107.195 19.2981 107.668 18.7031 108.281 18.2955C108.897 17.8845 109.631 17.679 110.483 17.679C111.335 17.679 112.068 17.8845 112.681 18.2955C113.297 18.7064 113.771 19.303 114.103 20.0852C114.434 20.8641 114.598 21.8087 114.595 22.919C114.595 24.036 114.429 24.9905 114.098 25.7827C113.769 26.5748 113.299 27.1797 112.686 27.5973C112.073 28.0149 111.338 28.2237 110.483 28.2237ZM110.483 26.4389C111.067 26.4389 111.532 26.1456 111.88 25.5589C112.228 24.9723 112.401 24.0923 112.397 22.919C112.397 22.1468 112.318 21.5038 112.159 20.9901C112.003 20.4763 111.781 20.0902 111.492 19.8317C111.207 19.5732 110.871 19.4439 110.483 19.4439C109.903 19.4439 109.439 19.7339 109.091 20.3139C108.743 20.8939 108.568 21.7623 108.564 22.919C108.564 23.7012 108.642 24.3542 108.798 24.8778C108.957 25.3982 109.181 25.7893 109.469 26.0511C109.757 26.3097 110.095 26.4389 110.483 26.4389ZM128.973 21.3828H126.796C126.756 21.1011 126.675 20.8509 126.552 20.6321C126.43 20.41 126.272 20.2211 126.08 20.0653C125.888 19.9096 125.666 19.7902 125.414 19.7074C125.165 19.6245 124.895 19.5831 124.603 19.5831C124.076 19.5831 123.617 19.714 123.226 19.9759C122.835 20.2344 122.532 20.6122 122.316 21.1094C122.101 21.6032 121.993 22.2031 121.993 22.9091C121.993 23.6349 122.101 24.2448 122.316 24.7386C122.535 25.2325 122.84 25.6054 123.231 25.8572C123.622 26.1091 124.075 26.2351 124.588 26.2351C124.877 26.2351 125.144 26.197 125.389 26.1207C125.637 26.0445 125.858 25.9335 126.05 25.7876C126.242 25.6385 126.401 25.4579 126.527 25.2457C126.657 25.0336 126.746 24.7917 126.796 24.5199L128.973 24.5298C128.917 24.9972 128.776 25.4479 128.551 25.8821C128.329 26.313 128.029 26.6991 127.651 27.0405C127.276 27.3786 126.829 27.647 126.309 27.8459C125.791 28.0414 125.206 28.1392 124.554 28.1392C123.645 28.1392 122.833 27.9337 122.117 27.5227C121.405 27.1117 120.841 26.5168 120.427 25.7379C120.016 24.959 119.811 24.0161 119.811 22.9091C119.811 21.7988 120.019 20.8542 120.437 20.0753C120.855 19.2964 121.421 18.7031 122.137 18.2955C122.853 17.8845 123.659 17.679 124.554 17.679C125.144 17.679 125.69 17.7618 126.194 17.9276C126.701 18.0933 127.15 18.3352 127.541 18.6534C127.933 18.9683 128.251 19.3544 128.496 19.8118C128.745 20.2692 128.904 20.7929 128.973 21.3828ZM130.797 28V17.8182H132.95V22.0192H137.32V17.8182H139.467V28H137.32V23.794H132.95V28H130.797ZM150.879 22.9091C150.879 24.0194 150.668 24.964 150.247 25.7429C149.83 26.5218 149.26 27.1167 148.537 27.5277C147.818 27.9354 147.009 28.1392 146.111 28.1392C145.206 28.1392 144.394 27.9337 143.675 27.5227C142.956 27.1117 142.387 26.5168 141.97 25.7379C141.552 24.959 141.343 24.0161 141.343 22.9091C141.343 21.7988 141.552 20.8542 141.97 20.0753C142.387 19.2964 142.956 18.7031 143.675 18.2955C144.394 17.8845 145.206 17.679 146.111 17.679C147.009 17.679 147.818 17.8845 148.537 18.2955C149.26 18.7031 149.83 19.2964 150.247 20.0753C150.668 20.8542 150.879 21.7988 150.879 22.9091ZM148.696 22.9091C148.696 22.1899 148.589 21.5833 148.373 21.0895C148.161 20.5956 147.861 20.2211 147.473 19.9659C147.085 19.7107 146.631 19.5831 146.111 19.5831C145.591 19.5831 145.137 19.7107 144.749 19.9659C144.361 20.2211 144.059 20.5956 143.844 21.0895C143.632 21.5833 143.526 22.1899 143.526 22.9091C143.526 23.6283 143.632 24.2348 143.844 24.7287C144.059 25.2225 144.361 25.5971 144.749 25.8523C145.137 26.1075 145.591 26.2351 146.111 26.2351C146.631 26.2351 147.085 26.1075 147.473 25.8523C147.861 25.5971 148.161 25.2225 148.373 24.7287C148.589 24.2348 148.696 23.6283 148.696 22.9091ZM152.753 28V17.8182H156.771C157.543 17.8182 158.201 17.9657 158.744 18.2607C159.288 18.5523 159.702 18.9583 159.987 19.4787C160.275 19.9957 160.42 20.5923 160.42 21.2685C160.42 21.9446 160.274 22.5412 159.982 23.0582C159.69 23.5753 159.268 23.978 158.714 24.2663C158.164 24.5547 157.498 24.6989 156.716 24.6989H154.155V22.9737H156.368C156.782 22.9737 157.123 22.9025 157.392 22.7599C157.664 22.6141 157.866 22.4136 157.998 22.1584C158.134 21.8999 158.202 21.6032 158.202 21.2685C158.202 20.9304 158.134 20.6354 157.998 20.3835C157.866 20.1283 157.664 19.9311 157.392 19.7919C157.12 19.6494 156.775 19.5781 156.358 19.5781H154.906V28H152.753Z" fill="#31AD36"/>
</svg>
