<svg width="288" height="267" viewBox="0 0 288 267" fill="none" xmlns="http://www.w3.org/2000/svg">
<path opacity="0.025" d="M279.621 -11C300.817 -11 318 6.18107 318 27.375C318 48.5689 300.817 65.75 279.621 65.75C267.276 65.75 256.303 59.9141 249.283 50.8592C248.786 50.2181 247.965 49.9088 247.176 50.0977L155.019 72.1718C154.081 72.3966 153.44 73.2595 153.473 74.2241C153.501 75.0509 153.517 75.881 153.517 76.7143C153.517 89.6901 150.276 101.902 144.589 112.618C144.171 113.407 144.304 114.379 144.936 115.011L217.904 187.981C218.634 188.711 219.798 188.762 220.612 188.127C230.84 180.146 243.711 175.393 257.69 175.393C290.998 175.393 318 202.392 318 235.696C318 269.001 290.998 296 257.69 296C224.381 296 197.379 269.001 197.379 235.696C197.379 227.264 199.12 219.241 202.246 211.954C202.576 211.187 202.417 210.293 201.826 209.702L128.211 136.105C127.469 135.364 126.284 135.323 125.475 135.989C112.221 146.895 95.2637 153.464 76.7586 153.464C34.366 153.464 0 119.102 0 76.7143C0 34.3264 34.366 -0.0357141 76.7586 -0.0357141C107.809 -0.0357141 134.546 18.4022 146.634 44.923C147.038 45.8095 148.01 46.2997 148.957 46.0721L240.018 24.1874C240.852 23.9871 241.46 23.2756 241.569 22.4254C243.998 3.5699 260.102 -11 279.621 -11Z" fill="#D9D9D9"/>
</svg>
